<svg width="300" height="300" viewBox="0 0 300 300" fill="none" xmlns="http://www.w3.org/2000/svg">
<g clip-path="url(#clip0_17076_527)">
<path d="M300 0H0V300H300V0Z" fill="#1D1D1F"/>
<path d="M189.271 135.663C186.806 149.64 167.858 155.947 143.463 158.743C96.177 164.163 28.407 156.379 20.316 165.703C28.409 154.639 57.074 152.43 88.676 151.485L88.816 151.488C131.417 150.192 179.307 151.154 189.271 135.663Z" fill="#EBEB1C"/>
<path d="M282.708 149.286C241.511 159.748 205.75 128.132 143.866 133.287C128.32 134.584 78.828 151.836 78.828 151.836C90.985 144.396 133.639 130.28 143.653 129.072C152.654 127.986 187.476 122.718 228.922 134.835C228.932 134.835 228.932 134.835 228.942 134.835C232.533 135.891 236.172 137.067 239.849 138.394C266.459 147.98 282.708 149.286 282.708 149.286Z" fill="#EBEB1C"/>
<path d="M282.708 149.286C266.564 167.495 227.6 160.215 194.728 158.936C184.484 158.53 174.839 158.704 166.656 160.415C196.281 146.672 228.359 150.916 251.98 152.746H251.99C265.923 153.821 276.91 154.071 282.708 149.286Z" fill="#EBEB1C"/>
<path d="M47.364 165.342C44.72 172.601 35.468 172.613 27.951 172.469C23.339 172.385 19.373 172.242 18 173.689C19.812 166.714 30.805 164.93 38.948 164.795C42.847 164.733 46.094 165.044 47.364 165.342Z" fill="#EBEB1C"/>
<path d="M258.227 164.675C275.143 162.614 282.36 155.43 282.36 155.43C284.435 163.979 281.191 170.833 258.227 164.675Z" fill="#EBEB1C"/>
</g>
<defs>
<clipPath id="clip0_17076_527">
<rect width="300" height="300" fill="white"/>
</clipPath>
</defs>
</svg>
