<?xml version="1.0" encoding="utf-8"?>
<!-- Generator: Adobe Illustrator 27.5.0, SVG Export Plug-In . SVG Version: 6.00 Build 0)  -->
<svg version="1.1" xmlns="http://www.w3.org/2000/svg" xmlns:xlink="http://www.w3.org/1999/xlink" x="0px" y="0px"
	 viewBox="0 0 500 500" style="enable-background:new 0 0 500 500;" xml:space="preserve">
<g id="BACKGROUND">
	<rect style="fill:#1D1D1F;" width="500" height="500"/>
</g>
<g id="OBJECTS">
	<g>
		
			<linearGradient id="SVGID_1_" gradientUnits="userSpaceOnUse" x1="120.1682" y1="234.0891" x2="288.5539" y2="234.0891" gradientTransform="matrix(0.9998 0.0182 -0.0182 0.9998 4.0116 -4.7755)">
			<stop  offset="0" style="stop-color:#5CB8FF"/>
			<stop  offset="1" style="stop-color:#2F2569"/>
		</linearGradient>
		<path style="fill:url(#SVGID_1_);" d="M288.549,217.966c-2.465,13.977-21.413,20.284-45.808,23.08
			c-47.286,5.42-115.056-2.364-123.147,6.96c8.093-11.064,36.758-13.273,68.36-14.218l0.14,0.003
			C230.695,232.495,278.585,233.457,288.549,217.966z"/>
		
			<linearGradient id="SVGID_00000103950212242030015310000017412383328756579473_" gradientUnits="userSpaceOnUse" x1="260.6838" y1="226.9324" x2="373.7745" y2="248.2592" gradientTransform="matrix(0.9998 0.0182 -0.0182 0.9998 4.0116 -4.7755)">
			<stop  offset="0" style="stop-color:#5CB8FF"/>
			<stop  offset="1" style="stop-color:#2F2569"/>
		</linearGradient>
		<path style="fill:url(#SVGID_00000103950212242030015310000017412383328756579473_);" d="M381.986,231.589
			c-41.197,10.462-76.958-21.154-138.842-15.999c-15.546,1.297-65.038,18.549-65.038,18.549
			c12.157-7.44,54.811-21.556,64.825-22.764c9.001-1.086,43.823-6.354,85.269,5.763c0.01,0,0.01,0,0.02,0
			c3.591,1.056,7.23,2.232,10.907,3.559C365.737,230.283,381.986,231.589,381.986,231.589z"/>
		
			<linearGradient id="SVGID_00000106136100041536333770000005943067574778947460_" gradientUnits="userSpaceOnUse" x1="307.5746" y1="238.7636" x2="379.8379" y2="233.4155" gradientTransform="matrix(0.9998 0.0182 -0.0182 0.9998 4.0116 -4.7755)">
			<stop  offset="0" style="stop-color:#5CB8FF"/>
			<stop  offset="1" style="stop-color:#2F2569"/>
		</linearGradient>
		<path style="fill:url(#SVGID_00000106136100041536333770000005943067574778947460_);" d="M381.986,231.589
			c-16.144,18.209-55.108,10.929-87.98,9.65c-10.244-0.406-19.889-0.232-28.072,1.479c29.625-13.743,61.703-9.499,85.324-7.669
			l0.01,0C365.201,236.124,376.188,236.374,381.986,231.589z"/>
		
			<linearGradient id="SVGID_00000115482800505706943470000015305697937194821517_" gradientUnits="userSpaceOnUse" x1="132.1483" y1="250.6028" x2="133.0725" y2="257.9963" gradientTransform="matrix(0.9998 0.0182 -0.0182 0.9998 4.0116 -4.7755)">
			<stop  offset="0" style="stop-color:#FFFFFF"/>
			<stop  offset="1" style="stop-color:#686869"/>
		</linearGradient>
		<path style="fill:url(#SVGID_00000115482800505706943470000015305697937194821517_);" d="M146.642,247.645
			c-2.644,7.259-11.896,7.271-19.413,7.127c-4.612-0.084-8.578-0.227-9.951,1.22c1.812-6.975,12.805-8.759,20.948-8.894
			C142.125,247.036,145.372,247.347,146.642,247.645z"/>
		
			<linearGradient id="SVGID_00000135670389447773527030000010944748536564780962_" gradientUnits="userSpaceOnUse" x1="188.4005" y1="229.5495" x2="288.5539" y2="229.5495" gradientTransform="matrix(0.9998 0.0182 -0.0182 0.9998 4.0116 -4.7755)">
			<stop  offset="0" style="stop-color:#5CB8FF"/>
			<stop  offset="1" style="stop-color:#2F2569"/>
		</linearGradient>
		<path style="fill:url(#SVGID_00000135670389447773527030000010944748536564780962_);" d="M288.549,217.966
			c-2.465,13.977-21.413,20.284-45.808,23.08c-19.179,0.891-26.47-7.943-54.647-7.256
			C230.695,232.495,278.585,233.457,288.549,217.966z"/>
		
			<linearGradient id="SVGID_00000081606941417751622920000010690358153511536780_" gradientUnits="userSpaceOnUse" x1="178.4202" y1="222.4215" x2="328.1853" y2="222.4215" gradientTransform="matrix(0.9998 0.0182 -0.0182 0.9998 4.0116 -4.7755)">
			<stop  offset="0" style="stop-color:#5CB8FF"/>
			<stop  offset="1" style="stop-color:#2F2569"/>
		</linearGradient>
		<path style="fill:url(#SVGID_00000081606941417751622920000010690358153511536780_);" d="M328.2,217.137
			c-26.17-4.097-48.948-7.722-85.056-1.548c-15.546,1.297-65.038,18.549-65.038,18.549c12.157-7.44,54.811-21.556,64.825-22.764
			C251.932,210.288,286.754,205.021,328.2,217.137z"/>
		
			<linearGradient id="SVGID_00000049927042858231263950000013891133801192948376_" gradientUnits="userSpaceOnUse" x1="300.7466" y1="236.5314" x2="347.3133" y2="245.313" gradientTransform="matrix(0.9998 0.0182 -0.0182 0.9998 4.0116 -4.7755)">
			<stop  offset="0" style="stop-color:#5CB8FF"/>
			<stop  offset="1" style="stop-color:#2F2569"/>
		</linearGradient>
		<path style="fill:url(#SVGID_00000049927042858231263950000013891133801192948376_);" d="M351.258,235.05
			c-19.647-0.358-25.427,6.758-57.252,6.179c0,0,0,0,0,0.01c-10.244-0.406-19.889-0.232-28.072,1.479
			C295.559,228.975,327.638,233.22,351.258,235.05z"/>
		
			<linearGradient id="SVGID_00000065779414540197905580000012634163827631799201_" gradientUnits="userSpaceOnUse" x1="356.8632" y1="241.2909" x2="381.636" y2="241.2909" gradientTransform="matrix(0.9998 -0.0216 0.0216 0.9998 -4.5642 10.4253)">
			<stop  offset="0" style="stop-color:#FF8778"/>
			<stop  offset="1" style="stop-color:#9C122B"/>
		</linearGradient>
		<path style="fill:url(#SVGID_00000065779414540197905580000012634163827631799201_);" d="M357.505,246.978
			c16.916-2.061,24.133-9.245,24.133-9.245C383.713,246.282,380.469,253.136,357.505,246.978z"/>
	</g>
</g>
<g id="TEXTS">
	<g>
		<g>
			
				<text transform="matrix(1 0 0 1 128.301 290.8545)" style="fill:#FFFFFF; font-family:'Kanit-MediumItalic'; font-size:39.8105px; letter-spacing:3;">car dealer</text>
		</g>
		<g>
			
				<text transform="matrix(1 0 0 1 188.8098 316.3029)" style="fill:#FFFFFF; font-family:'Kanit-LightItalic'; font-size:17.5937px; letter-spacing:1;">slogan here</text>
		</g>
	</g>
</g>
</svg>
